PathFileType        4      (X/Y/Z)      C:\Users\pc\Desktop\IMUTRC\Sujet_03\Sujet_03_velo_100.trc         
DataRate	CameraRate	NumFrames	NumMarkers	Units	OrigDataRate	OrigDataStartFrame	OrigNumFrames
60.0	60.0	4	64	mm	60.0	1	947
Frame#	Time	pHipOrigin			pRightASI			pLeftASI			pRightCSI			pLeftCSI			pRightIschialTub			pLeftIschialTub			pSacrum			pL5SpinalProcess			pL3SpinalProcess			pT12SpinalProcess			pIJ			pT4SpinalProcess			pT8SpinalProcess			pPX			pC7SpinalProcess			pTopOfHead			pRightAuricularis			pLeftAuricularis			pBackOfHead			pRightAcromion			pLeftAcromion			pRightArmLatEpicondyle			pRightArmMedEpicondyle			pLeftArmLatEpicondyle			pLeftArmMedEpicondyle			pRightUlnarStyloid			pRightRadialStyloid			pRightOlecranon			pLeftUlnarStyloid			pLeftRadialStyloid			pLeftOlecranon			pRightTopOfHand			pRightPinky			pRightBallHand			pLeftTopOfHand			pLeftPinky			pLeftBallHand			pRightGreaterTrochanter			pRightKneeLatEpicondyle			pRightKneeMedEpicondyle			pRightPatella			pLeftGreaterTrochanter			pLeftKneeLatEpicondyle			pLeftKneeMedEpicondyle			pLeftPatella			pRightTibialTub			pRightLatMalleolus			pRightMedMalleolus			pLeftTibialTub			pLeftLatMalleolus			pLeftMedMalleolus			pRightHeelFoot			pRightFirstMetatarsal			pRightFifthMetatarsal			pRightPivotFoot			pRightHeelCenter			pRightToe			pLeftHeelFoot			pLeftFirstMetatarsal			pLeftFifthMetatarsal			pLeftPivotFoot			pLeftHeelCenter			pLeftToe			
		X1	Y1	Z1	X2	Y2	Z2	X3	Y3	Z3	X4	Y4	Z4	X5	Y5	Z5	X6	Y6	Z6	X7	Y7	Z7	X8	Y8	Z8	X9	Y9	Z9	X10	Y10	Z10	X11	Y11	Z11	X12	Y12	Z12	X13	Y13	Z13	X14	Y14	Z14	X15	Y15	Z15	X16	Y16	Z16	X17	Y17	Z17	X18	Y18	Z18	X19	Y19	Z19	X20	Y20	Z20	X21	Y21	Z21	X22	Y22	Z22	X23	Y23	Z23	X24	Y24	Z24	X25	Y25	Z25	X26	Y26	Z26	X27	Y27	Z27	X28	Y28	Z28	X29	Y29	Z29	X30	Y30	Z30	X31	Y31	Z31	X32	Y32	Z32	X33	Y33	Z33	X34	Y34	Z34	X35	Y35	Z35	X36	Y36	Z36	X37	Y37	Z37	X38	Y38	Z38	X39	Y39	Z39	X40	Y40	Z40	X41	Y41	Z41	X42	Y42	Z42	X43	Y43	Z43	X44	Y44	Z44	X45	Y45	Z45	X46	Y46	Z46	X47	Y47	Z47	X48	Y48	Z48	X49	Y49	Z49	X50	Y50	Z50	X51	Y51	Z51	X52	Y52	Z52	X53	Y53	Z53	X54	Y54	Z54	X55	Y55	Z55	X56	Y56	Z56	X57	Y57	Z57	X58	Y58	Z58	X59	Y59	Z59	X60	Y60	Z60	X61	Y61	Z61	X62	Y62	Z62	X63	Y63	Z63	X64	Y64	Z64	
1	0.0	0.0	1249.98655	7.653960137173716E-14	100.80072000000001	1330.68473	130.17693000000008	88.53182999999999	1321.29586	-143.8858299999999	76.60855	1408.21489	104.60235000000009	66.47087999999998	1400.43883	-121.59446999999992	-68.60209	1213.64069	61.05644000000008	-73.67093	1209.78146	-52.070769999999925	-58.52202	1290.76764	1.2096100000000827	6.85445	1375.20985	-4.204829999999916	77.18455	1471.74814	-11.692879999999915	141.40901	1560.22237	-18.95053999999991	410.23014	1598.58425	-41.35709999999993	287.02286	1701.45859	-34.733049999999906	212.89112	1641.84216	-26.841789999999914	312.42464	1512.93244	-30.758619999999926	332.46958	1736.13403	-38.534679999999916	578.99935	1841.08199	-82.88698999999991	513.10447	1782.15676	5.356840000000078	483.32506	1780.83195	-135.93696999999992	465.69934	1827.54589	-58.86761999999992	340.76404	1734.80922	172.11003000000008	323.31112	1701.91939	-251.59859999999992	424.11184	1441.79593	168.71161000000006	406.02531	1435.57508	111.22640000000006	409.76933	1418.92856	-246.24175999999994	400.89887	1415.06933	-186.39492999999993	513.45008	1206.72864	87.49503000000004	561.71922	1225.96718	101.49193000000004	388.74518	1435.17188	136.05217000000005	515.40849	1185.93489	-188.00774999999993	561.89202	1208.11105	-203.67505999999995	379.29872	1411.84371	-211.16310999999993	683.6017	1078.91333	159.78354000000002	595.47306	1102.5295	118.65685000000003	558.6664	1170.95879	90.25985000000004	679.97287	1078.74053	-298.08213	599.67789	1091.06701	-239.73291999999998	563.62004	1153.56346	-199.29742999999996	27.821000000000012	1225.33358	163.5851700000001	290.42128	910.89292	112.78161000000004	289.44207	914.80975	32.88984000000004	322.27431	943.95556	71.30931000000004	7.833659999999989	1232.41843	-170.09401999999992	330.68397	979.78302	-218.30555999999999	346.92728	975.46299	-140.08419999999998	364.03461	1014.74647	-179.65568999999996	340.99444	873.33745	65.89487000000004	215.59834	470.99857	94.46468000000002	211.16311	473.18739	27.763400000000015	353.03293	920.39699	-179.48288999999997	14.054499999999994	675.19204	-121.65206999999995	31.507429999999996	675.42244	-57.082009999999954	154.42671	398.71006	37.26747000000002	317.66628	377.3979	-15.494509999999996	319.27909	350.72891	61.69004	341.05204	359.65698	19.92974	193.88299	391.3372	33.926640000000006	422.44143	342.54965	12.326489999999994	-53.22278	641.6686	-38.99547999999996	85.24861	538.21825	-34.84824999999997	48.211549999999995	517.1365	-104.48714999999997	83.8086	512.29807	-72.80691999999998	-23.904170000000004	615.0572	-46.54112999999997	143.54023	455.73446	-87.49502999999999	
2	0.017	0.0	1249.98655	7.653960137173716E-14	101.20392000000001	1330.22393	130.17693000000008	86.97661999999998	1323.25428	-143.8282299999999	76.26295	1407.75408	105.52396000000009	64.51245999999999	1402.05164	-120.67285999999991	-67.91089	1212.60388	61.229240000000075	-73.78613	1209.72386	-51.89796999999992	-58.75242	1290.30684	2.0160100000000827	6.04804	1375.38265	-3.168019999999916	75.91734	1472.26654	-10.656079999999914	139.8538	1560.97118	-18.02892999999991	408.44453	1599.62106	-41.990699999999926	285.23724	1702.43779	-34.617849999999905	211.16311	1642.70616	-26.323389999999915	310.81183	1513.85404	-30.873819999999924	330.68397	1737.11324	-38.76507999999991	577.09853	1841.94599	-83.80859999999991	511.20366	1783.30877	4.6080300000000785	481.42425	1781.58076	-136.6857799999999	463.79852	1828.5251	-59.73162999999992	339.84243	1735.61563	172.05243000000007	320.6615	1702.20739	-251.7137999999999	422.67183	1442.48713	168.99961000000005	404.5277	1436.20869	111.51440000000005	407.11972	1419.38937	-245.60815999999994	397.84605	1415.41494	-185.81892999999994	511.49166	1206.84384	89.33824000000004	559.81841	1226.02478	103.39274000000005	387.24757	1435.92068	136.28258000000005	512.52847	1186.5109	-186.22212999999994	559.012	1208.57186	-202.00464999999994	376.4763	1412.30451	-210.58710999999994	681.52808	1079.14373	162.14516000000003	593.51465	1102.7023	120.96087000000003	556.70799	1171.01639	92.27586000000004	677.20805	1079.14373	-296.00852	596.85547	1091.52782	-237.71689999999998	560.74002	1154.08187	-197.45420999999996	27.24500000000001	1223.08716	163.4123700000001	272.56515	895.28321	111.11120000000004	271.52834	899.43044	31.21942000000004	305.97339	926.67544	69.58130000000004	6.969649999999989	1234.72244	-170.32441999999992	340.76404	998.04235	-224.75680999999997	357.98656	993.60712	-146.76584999999997	372.84747	1034.04261	-186.04932999999997	322.44711	858.07335	64.45486000000004	194.74699	456.71367	95.73189000000002	190.19656	458.49928	29.030610000000017	363.5162	939.28993	-184.26371999999998	27.129789999999993	690.91695	-124.76248999999996	43.776309999999995	692.93296	-60.01962999999996	130.46493	387.01717	37.555470000000014	292.8405	359.02337	-14.803309999999996	292.9557	331.60557	62.09324	315.30466	340.01524	20.505750000000003	169.57561	377.91631	34.272250000000014	395.71483	319.56709	13.017689999999995	-39.80189	657.16311	-41.41469999999996	100.33992	555.90158	-37.95866999999997	63.13004999999999	534.12863	-107.30956999999997	99.01511	529.86619	-75.85973999999997	-10.137670000000004	631.01252	-49.133149999999965	159.55314	474.2242	-90.83584999999998	
3	0.033	0.0	1249.98655	7.653960137173716E-14	101.60713000000001	1329.70552	130.17693000000008	85.36380999999999	1325.21269	-143.77062999999993	75.91734	1407.35088	106.44556000000009	62.55404999999999	1403.60685	-119.75125999999992	-67.16208	1211.56708	61.34444000000008	-73.90133	1209.72386	-51.72516999999992	-59.04042	1289.90364	2.8224200000000828	5.18404	1375.49785	-2.1888199999999163	74.65013	1472.78495	-9.619269999999915	138.29859	1561.71998	-17.107319999999913	406.65891	1600.65786	-42.68190999999993	283.39403	1703.3594	-34.50264999999991	209.4927	1643.62777	-25.747379999999914	309.14141	1514.83325	-30.931419999999925	328.84076	1738.09245	-38.995479999999915	575.25532	1842.8676	-84.67260999999992	509.30285	1784.40318	3.8592300000000783	479.52343	1782.38716	-137.37697999999992	461.95531	1829.5043	-60.595629999999915	338.92083	1736.42204	171.93723000000008	318.06948	1702.55299	-251.82899999999992	421.23182	1443.17834	169.28761000000006	402.97249	1436.84229	111.86000000000006	404.5277	1419.90777	-244.97454999999994	394.79323	1415.81814	-185.30052999999995	509.53325	1206.95904	91.18145000000004	557.86	1226.08238	105.29355000000004	385.80756	1436.61189	136.51298000000006	509.59085	1187.0869	-184.43651999999994	556.13198	1209.09026	-200.27662999999995	373.65388	1412.82292	-209.95349999999993	679.51207	1079.43173	164.56438000000003	591.49864	1102.8175	123.20728000000003	554.80717	1171.07399	94.29188000000005	674.44323	1079.54693	-293.93491	594.03305	1091.98862	-235.70088999999996	557.86	1154.65787	-195.55339999999998	26.55379000000001	1220.95594	163.29717000000008	253.96022	880.65271	109.49838000000004	252.86581	885.03034	29.60661000000004	288.80847	910.31692	67.91089000000004	6.04803999999999	1237.02646	-170.6124199999999	349.92251	1016.87768	-231.09285999999997	368.12424	1012.32725	-153.33229999999998	380.68113	1053.91475	-192.27017999999998	303.89978	842.80924	63.01485000000003	173.89565	442.37117	96.94149000000002	169.23001	443.81118	30.24022000000002	373.99948	958.24046	-189.10214999999997	40.20508999999999	706.81466	-127.75770999999996	56.045199999999994	710.50109	-62.89964999999996	106.61836	375.43949	37.84347000000002	267.89952	340.87924	-14.169699999999995	266.45951	312.71264	62.43885000000001	289.26927	320.5463	21.081750000000003	145.32584	364.66821	34.61785000000001	368.87304	296.58452	13.651299999999996	-26.323390000000003	672.71522	-43.83390999999996	115.31603	573.64251	-41.126689999999975	78.04856	551.12075	-110.18958999999997	114.22162	547.49192	-78.97016999999997	3.686429999999997	647.02543	-51.667569999999955	175.56606	492.71393	-94.23426999999998	
4	0.05	0.0	1249.98655	7.653960137173716E-14	101.95273000000002	1329.24472	130.17693000000008	84.09659999999998	1326.7679	-143.71302999999992	75.74454	1406.89008	107.19437000000009	60.94123999999999	1404.87406	-118.94484999999992	-66.58608	1210.70307	61.45964000000008	-73.95893	1209.66626	-51.552369999999925	-59.21322	1289.55804	3.5136300000000826	4.49283	1375.61305	-1.324809999999916	73.67093	1473.18815	-8.755259999999915	137.20418	1562.29599	-16.41611999999991	405.3917	1601.23387	-43.200309999999924	282.18442	1703.993	-34.44504999999991	208.28309	1644.26138	-25.344179999999916	307.8742	1515.46685	-30.931419999999925	327.57355	1738.66845	-39.22587999999991	573.98811	1843.2132	-85.65180999999991	508.09324	1785.09438	3.110420000000078	478.19862	1782.67517	-138.1257899999999	460.6881	1829.96511	-61.402039999999914	338.34482	1737.05564	171.8220300000001	316.16866	1702.49539	-251.9441999999999	420.19501	1443.63914	169.46041000000005	401.87808	1437.30309	112.03280000000005	402.62688	1420.08057	-244.68654999999995	392.60441	1415.87574	-185.07012999999995	508.03564	1206.95904	92.56386000000005	556.36238	1225.96718	106.79116000000005	384.77076	1437.07269	136.62818000000004	507.40203	1187.2597	-183.11170999999993	553.88557	1209.14786	-199.06702999999993	371.58026	1412.99572	-209.66549999999995	677.95686	1079.54693	166.40759000000003	589.94343	1102.8175	124.93529000000002	553.25196	1171.07399	95.84709000000004	672.25441	1079.48933	-292.43729	591.84424	1092.04622	-234.26087999999996	555.67118	1154.77307	-194.22858999999997	25.86259000000001	1219.17033	163.1819700000001	237.6593	869.19022	108.23118000000004	236.6801	873.79826	28.33940000000004	273.83236	897.35683	66.64368000000005	5.356839999999989	1238.81207	-170.72761999999992	358.10176	1034.38821	-235.29768999999996	377.1099	1030.12578	-157.70992999999999	387.53558	1072.46208	-196.41740999999996	287.59886	829.84914	61.80524000000003	151.25868	431.59989	96.88389000000001	146.65065	432.9247	30.182620000000014	384.13715	976.03899	-192.38537999999997	55.29639999999999	717.98914	-132.07774999999995	70.0997	723.00038	-67.10447999999995	81.44698	367.77863	36.97946000000002	241.34573	326.93994	-14.572899999999995	238.40811	298.31254	61.805240000000005	261.73627	305.45499	20.56335	119.63606	355.45215	33.81144000000001	340.36084	278.15239	13.420899999999996	-10.310470000000004	682.62249	-47.86593999999996	133.92096	587.23621	-46.13792999999997	96.88389	563.96564	-115.08561999999998	133.28735	561.20082	-84.09659999999998	20.332949999999997	657.73911	-55.92999999999996	195.8414	508.15084	-99.82150999999999	
